<svg width="25" height="25" viewBox="0 0 25 25" fill="none" xmlns="http://www.w3.org/2000/svg">
<rect width="25" height="25" rx="7" fill="url(#paint0_linear_171_4921)"/>
<path d="M18.6333 7.69842H16.5332L15.4967 6.14664C15.4566 6.08679 15.4024 6.03774 15.3387 6.00385C15.2751 5.96996 15.2041 5.95229 15.1319 5.95239H10.4634C10.3913 5.95229 10.3202 5.96996 10.2566 6.00385C10.1929 6.03774 10.1387 6.08679 10.0987 6.14664L9.06137 7.69842H6.96199C6.53636 7.69842 6.12818 7.86705 5.82722 8.16721C5.52626 8.46737 5.35718 8.87447 5.35718 9.29895V17.4471C5.35718 17.8716 5.52626 18.2787 5.82722 18.5788C6.12818 18.879 6.53636 19.0476 6.96199 19.0476H18.6333C19.0589 19.0476 19.4671 18.879 19.7681 18.5788C20.0691 18.2787 20.2381 17.8716 20.2381 17.4471V9.29895C20.2381 8.87447 20.0691 8.46737 19.7681 8.16721C19.4671 7.86705 19.0589 7.69842 18.6333 7.69842ZM19.3628 17.4471C19.3628 17.64 19.2859 17.8251 19.1491 17.9615C19.0123 18.098 18.8268 18.1746 18.6333 18.1746H6.96199C6.76852 18.1746 6.58298 18.098 6.44618 17.9615C6.30938 17.8251 6.23253 17.64 6.23253 17.4471V9.29895C6.23253 9.10601 6.30938 8.92096 6.44618 8.78452C6.58298 8.64809 6.76852 8.57144 6.96199 8.57144H9.29625C9.36839 8.57155 9.43943 8.55387 9.50307 8.51998C9.5667 8.48609 9.62095 8.43704 9.66098 8.37719L10.6975 6.82541H14.897L15.9343 8.37719C15.9744 8.43704 16.0286 8.48609 16.0922 8.51998C16.1559 8.55387 16.2269 8.57155 16.2991 8.57144H18.6333C18.8268 8.57144 19.0123 8.64809 19.1491 8.78452C19.2859 8.92096 19.3628 9.10601 19.3628 9.29895V17.4471ZM12.7977 10.0265C12.1917 10.0265 11.5994 10.2057 11.0955 10.5414C10.5917 10.8772 10.199 11.3544 9.96714 11.9127C9.73525 12.471 9.67458 13.0854 9.7928 13.6781C9.91101 14.2709 10.2028 14.8153 10.6313 15.2426C11.0597 15.67 11.6056 15.961 12.2 16.0789C12.7943 16.1968 13.4103 16.1363 13.9701 15.905C14.5299 15.6737 15.0084 15.2821 15.345 14.7796C15.6817 14.2771 15.8614 13.6864 15.8614 13.082C15.8614 12.2716 15.5386 11.4944 14.964 10.9214C14.3895 10.3484 13.6102 10.0265 12.7977 10.0265ZM12.7977 15.2646C12.3648 15.2646 11.9417 15.1366 11.5819 14.8967C11.222 14.6569 10.9415 14.3161 10.7759 13.9172C10.6102 13.5184 10.5669 13.0796 10.6513 12.6562C10.7358 12.2329 10.9442 11.844 11.2502 11.5387C11.5563 11.2335 11.9462 11.0256 12.3707 10.9414C12.7952 10.8572 13.2352 10.9004 13.6351 11.0656C14.035 11.2308 14.3768 11.5106 14.6172 11.8695C14.8577 12.2284 14.986 12.6504 14.986 13.082C14.986 13.6609 14.7555 14.216 14.3451 14.6253C13.9347 15.0346 13.378 15.2646 12.7977 15.2646Z" fill="white"/>
<defs>
<linearGradient id="paint0_linear_171_4921" x1="1.65146e-07" y1="2.97619" x2="25" y2="25" gradientUnits="userSpaceOnUse">
<stop stop-color="#FB522B"/>
<stop offset="0.528407" stop-color="#F20032"/>
</linearGradient>
</defs>
</svg>
