<svg width="25" height="25" viewBox="0 0 25 25" fill="none" xmlns="http://www.w3.org/2000/svg">
<rect width="25" height="25" rx="7" fill="url(#paint0_linear_171_4935)"/>
<path d="M5.95239 6.98436C5.95239 6.86859 5.99838 6.75756 6.08025 6.6757C6.16211 6.59384 6.27314 6.54785 6.38891 6.54785H7.69848C7.79585 6.54788 7.89042 6.58046 7.96714 6.64041C8.04386 6.70037 8.09834 6.78425 8.1219 6.87872L8.47549 8.29388H18.6115C18.6756 8.29394 18.7389 8.30812 18.7969 8.3354C18.8549 8.36268 18.9062 8.40239 18.9471 8.45173C18.988 8.50106 19.0176 8.5588 19.0337 8.62084C19.0497 8.68289 19.052 8.74771 19.0402 8.81071L17.7306 15.7948C17.7119 15.8949 17.6588 15.9852 17.5805 16.0502C17.5023 16.1153 17.4037 16.1509 17.3019 16.151H9.44456C9.34279 16.1509 9.24426 16.1153 9.16598 16.0502C9.08771 15.9852 9.03463 15.8949 9.0159 15.7948L7.70721 8.8238L7.35799 7.42087H6.38891C6.27314 7.42087 6.16211 7.37488 6.08025 7.29302C5.99838 7.21116 5.95239 7.10013 5.95239 6.98436ZM8.66057 9.1669L9.80688 15.278H16.9396L18.0859 9.1669H8.66057ZM10.3176 16.151C9.85452 16.151 9.41039 16.335 9.08294 16.6624C8.75548 16.9899 8.57152 17.434 8.57152 17.8971C8.57152 18.3601 8.75548 18.8042 9.08294 19.1317C9.41039 19.4591 9.85452 19.6431 10.3176 19.6431C10.7807 19.6431 11.2248 19.4591 11.5523 19.1317C11.8797 18.8042 12.0637 18.3601 12.0637 17.8971C12.0637 17.434 11.8797 16.9899 11.5523 16.6624C11.2248 16.335 10.7807 16.151 10.3176 16.151ZM16.4289 16.151C15.9658 16.151 15.5217 16.335 15.1942 16.6624C14.8668 16.9899 14.6828 17.434 14.6828 17.8971C14.6828 18.3601 14.8668 18.8042 15.1942 19.1317C15.5217 19.4591 15.9658 19.6431 16.4289 19.6431C16.892 19.6431 17.3361 19.4591 17.6636 19.1317C17.991 18.8042 18.175 18.3601 18.175 17.8971C18.175 17.434 17.991 16.9899 17.6636 16.6624C17.3361 16.335 16.892 16.151 16.4289 16.151ZM10.3176 17.024C10.5492 17.024 10.7712 17.116 10.9349 17.2797C11.0987 17.4435 11.1906 17.6655 11.1906 17.8971C11.1906 18.1286 11.0987 18.3507 10.9349 18.5144C10.7712 18.6781 10.5492 18.7701 10.3176 18.7701C10.0861 18.7701 9.864 18.6781 9.70027 18.5144C9.53654 18.3507 9.44456 18.1286 9.44456 17.8971C9.44456 17.6655 9.53654 17.4435 9.70027 17.2797C9.864 17.116 10.0861 17.024 10.3176 17.024ZM16.4289 17.024C16.6605 17.024 16.8825 17.116 17.0462 17.2797C17.21 17.4435 17.3019 17.6655 17.3019 17.8971C17.3019 18.1286 17.21 18.3507 17.0462 18.5144C16.8825 18.6781 16.6605 18.7701 16.4289 18.7701C16.1974 18.7701 15.9753 18.6781 15.8116 18.5144C15.6478 18.3507 15.5559 18.1286 15.5559 17.8971C15.5559 17.6655 15.6478 17.4435 15.8116 17.2797C15.9753 17.116 16.1974 17.024 16.4289 17.024Z" fill="white"/>
<defs>
<linearGradient id="paint0_linear_171_4935" x1="1.65146e-07" y1="2.97619" x2="25" y2="25" gradientUnits="userSpaceOnUse">
<stop stop-color="#F10135"/>
<stop offset="1" stop-color="#C63BC9"/>
</linearGradient>
</defs>
</svg>
