<svg width="25" height="25" viewBox="0 0 25 25" fill="none" xmlns="http://www.w3.org/2000/svg">
<rect width="25" height="25" rx="7" fill="url(#paint0_linear_171_4914)"/>
<path d="M5.95239 6.98412C5.95239 6.86835 5.99838 6.75732 6.08025 6.67546C6.16211 6.5936 6.27314 6.54761 6.38891 6.54761H7.69848C7.79585 6.54763 7.89042 6.58022 7.96714 6.64017C8.04386 6.70012 8.09834 6.78401 8.1219 6.87848L8.47549 8.29364H18.6115C18.6756 8.2937 18.7389 8.30787 18.7969 8.33515C18.8549 8.36243 18.9062 8.40215 18.9471 8.45148C18.988 8.50082 19.0176 8.55856 19.0337 8.6206C19.0497 8.68264 19.052 8.74746 19.0402 8.81046L17.7306 15.7946C17.7119 15.8946 17.6588 15.985 17.5805 16.05C17.5023 16.115 17.4037 16.1507 17.3019 16.1508H9.44456C9.34279 16.1507 9.24426 16.115 9.16598 16.05C9.08771 15.985 9.03462 15.8946 9.0159 15.7946L7.70721 8.82356L7.35799 7.42062H6.38891C6.27314 7.42062 6.16211 7.37463 6.08025 7.29277C5.99838 7.21091 5.95239 7.09988 5.95239 6.98412ZM8.66057 9.16665L9.80688 15.2778H16.9396L18.0859 9.16665H8.66057ZM10.3176 16.1508C9.85452 16.1508 9.41039 16.3347 9.08294 16.6622C8.75548 16.9896 8.57152 17.4337 8.57152 17.8968C8.57152 18.3599 8.75548 18.804 9.08294 19.1314C9.41039 19.4589 9.85452 19.6428 10.3176 19.6428C10.7807 19.6428 11.2248 19.4589 11.5523 19.1314C11.8797 18.804 12.0637 18.3599 12.0637 17.8968C12.0637 17.4337 11.8797 16.9896 11.5523 16.6622C11.2248 16.3347 10.7807 16.1508 10.3176 16.1508ZM16.4289 16.1508C15.9658 16.1508 15.5217 16.3347 15.1942 16.6622C14.8668 16.9896 14.6828 17.4337 14.6828 17.8968C14.6828 18.3599 14.8668 18.804 15.1942 19.1314C15.5217 19.4589 15.9658 19.6428 16.4289 19.6428C16.892 19.6428 17.3361 19.4589 17.6636 19.1314C17.991 18.804 18.175 18.3599 18.175 17.8968C18.175 17.4337 17.991 16.9896 17.6636 16.6622C17.3361 16.3347 16.892 16.1508 16.4289 16.1508ZM10.3176 17.0238C10.5492 17.0238 10.7712 17.1158 10.9349 17.2795C11.0987 17.4432 11.1906 17.6653 11.1906 17.8968C11.1906 18.1284 11.0987 18.3504 10.9349 18.5141C10.7712 18.6779 10.5492 18.7698 10.3176 18.7698C10.0861 18.7698 9.864 18.6779 9.70027 18.5141C9.53654 18.3504 9.44456 18.1284 9.44456 17.8968C9.44456 17.6653 9.53654 17.4432 9.70027 17.2795C9.864 17.1158 10.0861 17.0238 10.3176 17.0238ZM16.4289 17.0238C16.6605 17.0238 16.8825 17.1158 17.0462 17.2795C17.21 17.4432 17.3019 17.6653 17.3019 17.8968C17.3019 18.1284 17.21 18.3504 17.0462 18.5141C16.8825 18.6779 16.6605 18.7698 16.4289 18.7698C16.1974 18.7698 15.9753 18.6779 15.8116 18.5141C15.6478 18.3504 15.5559 18.1284 15.5559 17.8968C15.5559 17.6653 15.6478 17.4432 15.8116 17.2795C15.9753 17.1158 16.1974 17.0238 16.4289 17.0238Z" fill="white"/>
<defs>
<linearGradient id="paint0_linear_171_4914" x1="1.65146e-07" y1="2.97619" x2="25" y2="25" gradientUnits="userSpaceOnUse">
<stop stop-color="#F300DB"/>
<stop offset="1" stop-color="#FF8800"/>
</linearGradient>
</defs>
</svg>
