<svg width="25" height="25" viewBox="0 0 25 25" fill="none" xmlns="http://www.w3.org/2000/svg">
<rect width="25" height="25" rx="7" fill="url(#paint0_linear_171_4891)"/>
<path d="M18.8492 13.1496C19.1592 13.3641 19.4357 13.6074 19.6785 13.8794C19.9214 14.1515 20.1306 14.4497 20.3063 14.774C20.482 15.0984 20.6112 15.4411 20.6938 15.802C20.7765 16.163 20.823 16.5318 20.8333 16.9085C20.8333 17.5311 20.7171 18.117 20.4846 18.6663C20.2521 19.2156 19.9317 19.6943 19.5235 20.1024C19.1153 20.5105 18.6425 20.8322 18.1052 21.0676C17.5678 21.303 16.9891 21.4234 16.3691 21.4286C15.8989 21.4286 15.4442 21.358 15.005 21.2167C14.5658 21.0755 14.1628 20.8714 13.7959 20.6046C13.429 20.3378 13.1035 20.0187 12.8193 19.6473C12.5351 19.2758 12.3156 18.8651 12.1605 18.4152H5.95239V6.36164H7.93652V5.35718H8.92858V6.36164H15.873V5.35718H16.8651V6.36164H18.8492V13.1496ZM6.94446 7.36611V9.37503H17.8572V7.36611H16.8651V8.37057H15.873V7.36611H8.92858V8.37057H7.93652V7.36611H6.94446ZM11.928 17.4107C11.9125 17.2486 11.9048 17.0812 11.9048 16.9085C11.9048 16.4586 11.9668 16.0218 12.0908 15.598C12.2148 15.1742 12.4034 14.774 12.6566 14.3974H11.9048V13.3929H12.8968V14.0678C13.1087 13.801 13.3438 13.5655 13.6021 13.3615C13.8605 13.1575 14.1395 12.9822 14.4392 12.8357C14.7389 12.6892 15.0515 12.5794 15.377 12.5061C15.7025 12.4329 16.0332 12.3937 16.3691 12.3884C16.8858 12.3884 17.3818 12.4747 17.8572 12.6474V10.3795H6.94446V17.4107H11.928ZM16.3691 20.4241C16.8496 20.4241 17.2991 20.3326 17.7176 20.1495C18.1362 19.9664 18.503 19.7153 18.8182 19.3961C19.1334 19.077 19.3814 18.7056 19.5623 18.2818C19.7431 17.858 19.8361 17.4003 19.8413 16.9085C19.8413 16.422 19.7509 15.9668 19.57 15.5431C19.3892 15.1193 19.1412 14.7479 18.826 14.4287C18.5108 14.1096 18.1439 13.8585 17.7254 13.6754C17.3069 13.4923 16.8548 13.3981 16.3691 13.3929C15.8885 13.3929 15.439 13.4844 15.0205 13.6676C14.6019 13.8507 14.2351 14.1018 13.9199 14.4209C13.6047 14.74 13.3567 15.1115 13.1759 15.5352C12.995 15.959 12.902 16.4167 12.8968 16.9085C12.8968 17.3951 12.9873 17.8502 13.1681 18.274C13.3489 18.6977 13.597 19.0692 13.9122 19.3883C14.2273 19.7074 14.5942 19.9585 15.0127 20.1416C15.4312 20.3247 15.8834 20.4189 16.3691 20.4241ZM16.8651 16.4063H18.3532V17.4107H15.873V14.3974H16.8651V16.4063ZM7.93652 13.3929H8.92858V14.3974H7.93652V13.3929ZM9.92065 13.3929H10.9127V14.3974H9.92065V13.3929ZM9.92065 11.384H10.9127V12.3884H9.92065V11.384ZM7.93652 15.4018H8.92858V16.4063H7.93652V15.4018ZM9.92065 15.4018H10.9127V16.4063H9.92065V15.4018ZM12.8968 12.3884H11.9048V11.384H12.8968V12.3884ZM14.881 12.3884H13.8889V11.384H14.881V12.3884ZM16.8651 12.3884H15.873V11.384H16.8651V12.3884Z" fill="white"/>
<defs>
<linearGradient id="paint0_linear_171_4891" x1="1.65146e-07" y1="2.97619" x2="25" y2="25" gradientUnits="userSpaceOnUse">
<stop stop-color="#EF36D9"/>
<stop offset="1" stop-color="#1AD3FF"/>
</linearGradient>
</defs>
</svg>
