<svg width="291" height="316" viewBox="0 0 291 316" fill="none" xmlns="http://www.w3.org/2000/svg">
<path d="M272.022 25.28H227.739V6.32C227.739 4.64383 227.073 3.03632 225.886 1.85109C224.7 0.665856 223.091 0 221.413 0C219.735 0 218.126 0.665856 216.94 1.85109C215.753 3.03632 215.087 4.64383 215.087 6.32V25.28H75.913V6.32C75.913 4.64383 75.2466 3.03632 74.0602 1.85109C72.8738 0.665856 71.2647 0 69.587 0C67.9092 0 66.3001 0.665856 65.1137 1.85109C63.9274 3.03632 63.2609 4.64383 63.2609 6.32V25.28H18.9783C13.9449 25.28 9.11772 27.2776 5.5586 30.8333C1.99949 34.3889 0 39.2115 0 44.24V297.04C0 302.069 1.99949 306.891 5.5586 310.447C9.11772 314.002 13.9449 316 18.9783 316H272.022C277.055 316 281.882 314.002 285.441 310.447C289 306.891 291 302.069 291 297.04V44.24C291 39.2115 289 34.3889 285.441 30.8333C281.882 27.2776 277.055 25.28 272.022 25.28ZM18.9783 37.92H63.2609V56.88C63.2609 58.5562 63.9274 60.1637 65.1137 61.3489C66.3001 62.5341 67.9092 63.2 69.587 63.2C71.2647 63.2 72.8738 62.5341 74.0602 61.3489C75.2466 60.1637 75.913 58.5562 75.913 56.88V37.92H215.087V56.88C215.087 58.5562 215.753 60.1637 216.94 61.3489C218.126 62.5341 219.735 63.2 221.413 63.2C223.091 63.2 224.7 62.5341 225.886 61.3489C227.073 60.1637 227.739 58.5562 227.739 56.88V37.92H272.022C273.7 37.92 275.309 38.5859 276.495 39.7711C277.681 40.9563 278.348 42.5638 278.348 44.24V101.12H12.6522V44.24C12.6522 42.5638 13.3187 40.9563 14.505 39.7711C15.6914 38.5859 17.3005 37.92 18.9783 37.92ZM272.022 303.36H18.9783C17.3005 303.36 15.6914 302.694 14.505 301.509C13.3187 300.324 12.6522 298.716 12.6522 297.04V113.76H278.348V297.04C278.348 298.716 277.681 300.324 276.495 301.509C275.309 302.694 273.7 303.36 272.022 303.36Z" fill="#828682"/>
<path d="M193.419 161.389L145.881 271H126.216L174.267 163.441H110.997V146.854H193.419V161.389Z" fill="#828682"/>
</svg>
