<svg width="25" height="25" viewBox="0 0 25 25" fill="none" xmlns="http://www.w3.org/2000/svg">
<rect width="25" height="25" rx="7" fill="url(#paint0_linear_171_4906)"/>
<path d="M11.7001 12.5187L10.6398 11.4585C10.5654 11.384 10.4848 11.3282 10.398 11.291C10.3112 11.2538 10.2212 11.2352 10.1279 11.2352C10.0352 11.2352 9.94241 11.2538 9.84966 11.291C9.7569 11.3282 9.67307 11.384 9.59817 11.4585C9.46176 11.5949 9.39356 11.7685 9.39356 11.9793C9.39356 12.1901 9.46176 12.3637 9.59817 12.5001L11.1793 14.0998C11.3281 14.2486 11.5017 14.323 11.7001 14.323C11.8985 14.323 12.0721 14.2486 12.2209 14.0998L15.6808 10.9376C15.6808 10.7392 15.6684 10.547 15.6436 10.361C15.6188 10.175 15.5381 10.0138 15.4017 9.87735C15.2529 9.72854 15.0761 9.65414 14.8712 9.65414C14.6664 9.65414 14.4898 9.72854 14.3415 9.87735L11.7001 12.5187ZM4.31543 19.7918V18.3037H19.9404C20.1512 18.3037 20.3281 18.3751 20.4709 18.518C20.6138 18.6608 20.685 18.8374 20.6845 19.0477C20.6845 19.2586 20.613 19.4354 20.4702 19.5782C20.3273 19.7211 20.1507 19.7923 19.9404 19.7918H4.31543ZM6.54757 17.5596C6.13835 17.5596 5.7879 17.4138 5.49623 17.1221C5.20457 16.8305 5.05898 16.4803 5.05948 16.0715V7.88702C5.05948 7.4778 5.20531 7.12735 5.49698 6.83568C5.78864 6.54402 6.13884 6.39843 6.54757 6.39893H18.4523C18.8616 6.39893 19.212 6.54476 19.5037 6.83643C19.7953 7.12809 19.9409 7.47829 19.9404 7.88702V16.0715C19.9404 16.4808 19.7946 16.8312 19.5029 17.1229C19.2113 17.4146 18.8611 17.5601 18.4523 17.5596H6.54757ZM6.54757 16.0715H18.4523V7.88702H6.54757V16.0715Z" fill="white"/>
<defs>
<linearGradient id="paint0_linear_171_4906" x1="1.65146e-07" y1="2.97619" x2="25" y2="25" gradientUnits="userSpaceOnUse">
<stop stop-color="#F20032"/>
<stop offset="1" stop-color="#AB2EFE"/>
</linearGradient>
</defs>
</svg>
