<svg width="25" height="25" viewBox="0 0 25 25" fill="none" xmlns="http://www.w3.org/2000/svg">
<rect width="25" height="25" rx="7" fill="url(#paint0_linear_171_4898)"/>
<path fill-rule="evenodd" clip-rule="evenodd" d="M7.81982 7.81248C10.5494 5.08654 14.9871 5.11531 17.7332 7.86211C20.4807 10.6096 20.5095 15.0495 17.7792 17.7791C15.0497 20.5086 10.6098 20.4806 7.86226 17.733C7.08942 16.9634 6.5055 16.0251 6.15633 14.9918C5.80716 13.9585 5.70224 12.8584 5.8498 11.7777C5.86917 11.6359 5.94408 11.5075 6.05805 11.4209C6.17203 11.3343 6.31574 11.2966 6.45757 11.3159C6.59939 11.3353 6.72772 11.4102 6.81432 11.5242C6.90091 11.6382 6.93869 11.7819 6.91932 11.9237C6.79406 12.8395 6.88286 13.7719 7.17876 14.6476C7.47466 15.5233 7.96958 16.3185 8.62466 16.9706C10.9586 19.3039 14.7152 19.3175 17.0168 17.0167C19.3177 14.7151 19.304 10.9585 16.9708 8.62451C14.6383 6.29272 10.8838 6.27761 8.58222 8.5756L9.12022 8.57776C9.19106 8.57809 9.26114 8.59237 9.32646 8.61979C9.39178 8.6472 9.45106 8.68721 9.50092 8.73754C9.55077 8.78786 9.59023 8.84751 9.61703 8.91309C9.64384 8.97866 9.65746 9.04887 9.65713 9.11971C9.6568 9.19055 9.64252 9.26063 9.61511 9.32595C9.58769 9.39127 9.54768 9.45055 9.49736 9.50041C9.44703 9.55027 9.38738 9.58973 9.32181 9.61653C9.25623 9.64333 9.18602 9.65696 9.11518 9.65663L7.28398 9.648C7.14179 9.64724 7.00564 9.59037 6.90516 9.48975C6.80468 9.38914 6.74799 9.25292 6.74742 9.11072L6.73807 7.28096C6.7377 7.21012 6.75127 7.1399 6.77803 7.07431C6.80479 7.00872 6.84421 6.94904 6.89404 6.89868C6.94386 6.84832 7.00311 6.80827 7.06842 6.78081C7.13372 6.75335 7.20379 6.73903 7.27463 6.73865C7.34547 6.73827 7.41569 6.75185 7.48128 6.77861C7.54687 6.80537 7.60655 6.84479 7.65691 6.89461C7.70727 6.94443 7.74732 7.00369 7.77478 7.06899C7.80224 7.13429 7.81656 7.20437 7.81694 7.27521L7.81982 7.8132V7.81248ZM12.797 9.38044C12.9401 9.38044 13.0773 9.43727 13.1784 9.53844C13.2796 9.6396 13.3364 9.77681 13.3364 9.91987V12.5739L14.977 14.2138C15.0286 14.2635 15.0697 14.323 15.098 14.3888C15.1263 14.4546 15.1412 14.5254 15.1419 14.597C15.1425 14.6686 15.1289 14.7397 15.1018 14.806C15.0747 14.8723 15.0347 14.9325 14.9841 14.9832C14.9335 15.0339 14.8732 15.074 14.807 15.1011C14.7407 15.1283 14.6697 15.142 14.598 15.1414C14.5264 15.1408 14.4556 15.1259 14.3898 15.0977C14.324 15.0695 14.2644 15.0284 14.2146 14.9769L12.2583 13.0205V9.92059C12.2583 9.77753 12.3151 9.64032 12.4163 9.53915C12.5174 9.43799 12.6547 9.38116 12.7977 9.38116L12.797 9.38044Z" fill="white"/>
<defs>
<linearGradient id="paint0_linear_171_4898" x1="1.65146e-07" y1="2.97619" x2="25" y2="25" gradientUnits="userSpaceOnUse">
<stop stop-color="#DD2E55"/>
<stop offset="0.528407" stop-color="#FCAB40"/>
</linearGradient>
</defs>
</svg>
