<svg xmlns="http://www.w3.org/2000/svg" xmlns:xlink="http://www.w3.org/1999/xlink" width="432" zoomAndPan="magnify" viewBox="0 0 324 274.499992" height="366" preserveAspectRatio="xMidYMid meet" version="1.0"><defs><clipPath id="7c163e32e7"><path d="M 0.292969 1 L 323.703125 1 L 323.703125 273.96875 L 0.292969 273.96875 Z M 0.292969 1 " clip-rule="nonzero"/></clipPath><clipPath id="2ae22c028e"><path d="M 41.613281 126 L 105 126 L 105 196.707031 L 41.613281 196.707031 Z M 41.613281 126 " clip-rule="nonzero"/></clipPath><clipPath id="b4a3f09e44"><path d="M 231 123.339844 L 282.675781 123.339844 L 282.675781 188 L 231 188 Z M 231 123.339844 " clip-rule="nonzero"/></clipPath></defs><g clip-path="url(#7c163e32e7)"><path fill="#000000" d="M 323.671875 41.085938 C 323.246094 73.113281 322.839844 105.136719 322.414062 137.148438 C 321.988281 169.675781 321.566406 202.207031 321.140625 234.71875 C 321 245.609375 320.84375 256.515625 320.667969 267.40625 C 320.636719 268.914062 320.574219 270.421875 320.386719 271.914062 C 320.152344 273.675781 319.820312 273.910156 317.824219 273.816406 C 314.398438 273.660156 310.957031 273.441406 307.53125 273.234375 C 299.753906 272.78125 291.976562 272.339844 284.179688 271.882812 C 273.464844 271.273438 262.761719 270.660156 252.042969 270.0625 C 244.847656 269.652344 237.648438 269.277344 230.453125 268.882812 C 219.578125 268.269531 208.703125 267.65625 197.8125 267.042969 C 190.539062 266.636719 183.246094 266.257812 175.96875 265.851562 C 165.097656 265.238281 154.222656 264.625 143.332031 264.011719 C 136.210938 263.617188 129.109375 263.242188 121.992188 262.847656 C 110.945312 262.234375 99.894531 261.605469 88.847656 260.996094 C 81.574219 260.585938 74.28125 260.207031 67.003906 259.816406 C 56.210938 259.21875 45.414062 258.589844 34.617188 257.992188 C 27.167969 257.585938 19.71875 257.191406 12.273438 256.78125 C 9.003906 256.609375 5.75 256.4375 2.480469 256.234375 C 0.644531 256.121094 0.359375 255.824219 0.453125 253.875 C 0.769531 247.9375 1.097656 241.996094 1.460938 236.054688 C 2.042969 226.59375 2.671875 217.152344 3.25 207.707031 C 4.039062 195.167969 4.824219 182.609375 5.609375 170.070312 C 6.175781 161.035156 6.710938 152 7.289062 142.960938 C 8.058594 130.671875 8.863281 118.371094 9.648438 106.082031 C 10.214844 97.21875 10.761719 88.339844 11.3125 79.476562 C 12.097656 66.761719 12.902344 54.050781 13.6875 41.320312 C 13.9375 37.296875 14.171875 33.289062 14.410156 29.269531 C 14.472656 28.609375 14.488281 27.933594 14.597656 27.273438 C 14.910156 25.214844 15.242188 24.898438 17.378906 24.945312 C 24.246094 25.136719 31.113281 25.355469 37.996094 25.589844 C 43.023438 25.761719 48.039062 26.078125 53.066406 26.140625 C 54.089844 26.15625 55.125 25.308594 55.972656 24.945312 C 56.179688 22.132812 56.195312 19.621094 56.554688 17.136719 C 57.734375 9.34375 62.96875 3.953125 70.683594 2.394531 C 79.339844 0.636719 87.277344 4.484375 90.261719 12.203125 C 91.332031 14.96875 91.851562 18 92.273438 20.96875 C 92.511719 22.652344 93.109375 24.050781 93.71875 25.574219 C 94.929688 28.640625 97.050781 28.875 99.832031 28.953125 C 121.707031 29.597656 143.566406 30.351562 165.425781 31.089844 C 179.585938 31.5625 193.742188 32.082031 207.902344 32.582031 C 216.027344 32.867188 224.152344 33.179688 232.273438 33.480469 C 232.855469 33.496094 233.4375 33.480469 233.878906 33.480469 C 235.105469 32.394531 236.296875 31.484375 237.320312 30.382812 C 237.757812 29.914062 237.980469 29.09375 238.042969 28.402344 C 238.230469 26.234375 238.089844 24.019531 238.46875 21.898438 C 240.148438 12.15625 247.863281 7.976562 254.824219 7.394531 C 264.472656 6.574219 271.78125 12.28125 273.496094 21.804688 C 273.871094 23.863281 274.058594 25.953125 274.359375 28.011719 C 274.421875 28.496094 274.484375 29.015625 274.71875 29.425781 C 275.726562 31.230469 276.808594 33.007812 277.941406 34.972656 C 280.738281 35.082031 283.757812 35.207031 286.757812 35.316406 C 297.898438 35.710938 309.039062 36.105469 320.183594 36.496094 C 320.765625 36.511719 321.359375 36.527344 321.941406 36.558594 C 323.042969 36.621094 323.625 37.21875 323.65625 38.320312 C 323.6875 39.230469 323.6875 40.15625 323.671875 41.085938 Z M 323.671875 41.085938 " fill-opacity="1" fill-rule="nonzero"/></g><path fill="#ffffff" d="M 231.050781 42.703125 C 231.003906 43.742188 230.957031 44.652344 230.925781 45.578125 C 230.796875 48.878906 231.757812 51.816406 233.753906 54.488281 C 237.777344 59.894531 243.210938 62.851562 249.71875 64.074219 C 256.867188 65.425781 263.5625 63.996094 269.847656 60.601562 C 274.941406 57.835938 277.25 53.042969 278.492188 47.636719 C 278.710938 46.664062 278.851562 45.65625 279.074219 44.371094 C 290.84375 44.480469 302.597656 44.964844 314.621094 45.484375 C 313.597656 118.464844 312.578125 191.269531 311.554688 264.230469 C 310.660156 264.230469 309.84375 264.261719 309.039062 264.230469 C 301.261719 263.808594 293.484375 263.367188 285.6875 262.925781 C 274.71875 262.3125 263.765625 261.6875 252.796875 261.074219 C 245.851562 260.679688 238.90625 260.320312 231.960938 259.941406 C 220.664062 259.3125 209.363281 258.667969 198.066406 258.039062 C 191.371094 257.664062 184.675781 257.300781 177.980469 256.941406 C 166.511719 256.296875 155.054688 255.652344 143.582031 255.023438 C 136.464844 254.628906 129.359375 254.285156 122.242188 253.875 C 111.273438 253.261719 100.320312 252.632812 89.351562 252.019531 C 82.578125 251.644531 75.789062 251.28125 69.015625 250.890625 C 57.796875 250.261719 46.59375 249.601562 35.371094 248.972656 C 28.175781 248.5625 20.976562 248.1875 13.78125 247.792969 C 12.539062 247.730469 11.3125 247.589844 9.882812 247.480469 C 14.285156 176.625 18.652344 105.953125 23.035156 35.332031 C 25.203125 34.738281 45.839844 35.238281 49.042969 35.929688 C 49.042969 37.769531 49.058594 39.59375 49.042969 41.429688 C 49.011719 43.851562 49.71875 46.050781 51.054688 48.0625 C 54.230469 52.839844 58.519531 56.125 64.019531 57.867188 C 71.484375 60.242188 78.761719 59.519531 85.847656 56.46875 C 92.605469 53.5625 95.683594 47.953125 96.832031 41.023438 C 96.972656 40.125 97.019531 39.214844 97.097656 38.351562 C 99.363281 37.769531 225.503906 41.917969 231.050781 42.703125 Z M 231.050781 42.703125 " fill-opacity="1" fill-rule="nonzero"/><path fill="#d1d3d4" d="M 279.089844 42.53125 C 278.757812 40.472656 278.460938 38.664062 278.175781 36.859375 C 279.96875 36.402344 319.097656 37.644531 322.210938 38.304688 C 321.125 116.183594 320.023438 194.128906 318.941406 272.433594 C 213.433594 266.589844 107.957031 260.742188 2.152344 254.882812 C 6.867188 178.730469 11.566406 102.734375 16.261719 26.472656 C 28.332031 26.910156 40.179688 27.335938 52.21875 27.773438 C 51.226562 30.132812 50.394531 32.113281 49.53125 34.1875 C 40.226562 33.886719 30.972656 33.589844 21.589844 33.289062 C 21.386719 35.617188 21.183594 37.613281 21.054688 39.59375 C 20.476562 48.800781 19.941406 57.992188 19.359375 67.203125 C 18.589844 79.335938 17.804688 91.464844 17.035156 103.597656 C 16.46875 112.554688 15.933594 121.496094 15.367188 130.453125 C 14.582031 142.914062 13.796875 155.394531 13.011719 167.855469 C 12.445312 176.96875 11.894531 186.097656 11.328125 195.214844 C 10.558594 207.597656 9.757812 219.980469 9.003906 232.363281 C 8.71875 236.96875 8.484375 241.570312 8.234375 246.175781 C 8.203125 246.914062 8.234375 247.652344 8.234375 248.660156 C 9.523438 248.863281 10.652344 249.113281 11.785156 249.175781 C 25.425781 249.929688 39.082031 250.621094 52.722656 251.378906 C 69.128906 252.289062 85.53125 253.277344 101.921875 254.191406 C 112.46875 254.785156 123.011719 255.289062 133.574219 255.871094 C 147.132812 256.625 160.679688 257.441406 174.242188 258.195312 C 184.613281 258.777344 195 259.296875 205.386719 259.863281 C 216.011719 260.460938 226.648438 261.089844 237.273438 261.6875 C 244.21875 262.078125 251.164062 262.441406 258.109375 262.832031 C 269.234375 263.460938 280.378906 264.089844 291.503906 264.71875 C 297.773438 265.082031 304.058594 265.441406 310.328125 265.773438 C 312.828125 265.898438 313.125 265.566406 313.171875 262.863281 C 313.472656 245.671875 313.800781 228.496094 314.054688 211.304688 C 314.761719 160.65625 315.4375 110.023438 316.113281 59.375 C 316.175781 55.101562 316.191406 50.828125 316.207031 46.554688 C 316.207031 44.117188 316.191406 44.023438 313.675781 43.898438 C 306.558594 43.566406 299.4375 43.332031 292.320312 43.050781 C 287.984375 42.890625 283.628906 42.703125 279.089844 42.53125 Z M 95.96875 30.257812 C 96.40625 32.425781 96.769531 34.203125 97.160156 36.167969 C 141.886719 37.753906 186.5 39.339844 231.160156 40.929688 C 231.789062 38.917969 232.371094 37.109375 233.015625 35.050781 C 187.253906 33.449219 141.726562 31.859375 95.96875 30.257812 Z M 95.96875 30.257812 " fill-opacity="1" fill-rule="nonzero"/><path fill="#00b37f" d="M 73.667969 34.5 C 66.363281 34.265625 61.410156 31.011719 58.363281 24.804688 C 58.03125 24.144531 57.78125 23.375 57.734375 22.652344 C 57.105469 12.625 62.054688 5.242188 72.191406 3.683594 C 80.347656 2.425781 86.222656 6.609375 88.769531 12.15625 C 92.117188 19.476562 89.507812 27.585938 82.359375 31.921875 C 79.578125 33.605469 76.527344 34.40625 73.667969 34.5 Z M 240.132812 29.660156 C 242.019531 33.824219 244.832031 37.125 249.371094 38.679688 C 256.867188 41.257812 264.820312 38.773438 269.425781 32.300781 C 275.316406 24.003906 270.886719 11.824219 261.046875 9.261719 C 249.90625 6.371094 240.039062 13.820312 239.441406 25.496094 C 239.660156 26.894531 239.566406 28.417969 240.132812 29.660156 Z M 233.675781 39.480469 C 232.949219 46.585938 235.574219 52.101562 241.828125 55.699219 C 247.25 58.828125 253.082031 59.769531 259.257812 58.589844 C 268.011719 56.925781 274.46875 50.84375 276.246094 42.5 C 277.046875 38.710938 276.167969 34.609375 274.203125 32.457031 C 273.101562 34.59375 272.113281 36.90625 270.761719 38.980469 C 270.039062 40.078125 269.457031 41.070312 269.535156 42.390625 C 269.675781 44.949219 268.324219 46.632812 266.28125 47.9375 C 262.652344 50.261719 258.660156 51.363281 254.386719 51.316406 C 250.425781 51.269531 246.78125 50.246094 243.792969 47.449219 C 241.859375 45.625 240.730469 43.535156 241.136719 40.753906 C 241.25 39.984375 241.089844 39.089844 240.777344 38.367188 C 239.882812 36.324219 238.828125 34.34375 237.777344 32.222656 C 235.480469 34.015625 233.988281 36.449219 233.675781 39.480469 Z M 52.046875 32.867188 C 50.425781 38.980469 53.019531 45.988281 58.597656 49.554688 C 67.367188 55.164062 76.480469 55.355469 85.4375 50.089844 C 90.96875 46.835938 93.988281 41.667969 94.601562 35.253906 C 94.882812 32.222656 94.144531 29.347656 92.417969 26.972656 C 91.175781 29.347656 90.121094 31.703125 88.769531 33.871094 C 88.15625 34.847656 87.703125 35.679688 87.734375 36.828125 C 87.8125 39.53125 86.492188 41.414062 84.230469 42.78125 C 81.464844 44.464844 78.492188 45.59375 75.289062 45.910156 C 70.460938 46.382812 65.90625 45.738281 62.101562 42.34375 C 60.058594 40.519531 58.851562 38.367188 59.195312 35.476562 C 59.289062 34.625 59.085938 33.652344 58.738281 32.867188 C 57.9375 30.964844 56.964844 29.125 55.988281 27.097656 C 53.898438 28.578125 52.707031 30.320312 52.046875 32.867188 Z M 52.046875 32.867188 " fill-opacity="1" fill-rule="nonzero"/><path fill="#00ab80" d="M 86.097656 36.167969 C 86.289062 39.152344 84.953125 40.691406 82.925781 41.855469 C 78.304688 44.511719 73.386719 45.296875 68.199219 44.023438 C 65.78125 43.441406 63.738281 42.136719 62.148438 40.222656 C 61.066406 38.917969 60.375 37.472656 60.84375 35.429688 C 69.113281 41.558594 77.503906 40.644531 86.097656 36.167969 Z M 244.0625 45.5625 C 245.789062 47.621094 248.019531 48.941406 250.628906 49.476562 C 255.847656 50.546875 260.78125 49.679688 265.308594 46.820312 C 267.160156 45.640625 268.386719 44.132812 267.804688 41.683594 C 258.0625 46.222656 251.542969 46.445312 242.835938 40.992188 C 242.632812 43.347656 242.835938 44.101562 244.0625 45.5625 Z M 234.097656 52.148438 C 235.480469 54.019531 236.878906 55.96875 238.640625 57.460938 C 247.488281 64.988281 261.175781 64.765625 270.460938 58.433594 C 274.40625 55.746094 275.992188 51.597656 276.839844 47.105469 C 268.574219 65.378906 240.351562 64.390625 232.589844 48.832031 C 233.078125 49.949219 233.390625 51.191406 234.097656 52.148438 Z M 73.324219 55.308594 C 64.050781 55.621094 56.242188 52.320312 51.101562 43.960938 C 51.355469 45.078125 51.683594 46.097656 52.25 46.976562 C 54.71875 50.921875 58.03125 53.910156 62.355469 55.683594 C 70.636719 59.0625 78.746094 58.417969 86.617188 54.425781 C 91.535156 51.929688 93.878906 47.511719 94.742188 42.183594 C 90.214844 50.921875 82.71875 54.976562 73.324219 55.308594 Z M 74.644531 36.183594 C 67.839844 36.605469 62.195312 34.125 58.253906 28.261719 C 59.589844 32.804688 62.605469 35.710938 66.910156 37.265625 C 74.0625 39.859375 80.597656 38.035156 86.617188 33.996094 C 89.179688 32.285156 89.980469 29.378906 90.199219 26.34375 C 86.476562 32.066406 81.480469 35.757812 74.644531 36.183594 Z M 241.105469 36.230469 C 243.132812 39.765625 246.246094 41.917969 250.113281 42.988281 C 255.941406 44.605469 261.363281 43.269531 266.597656 40.582031 C 270.429688 38.617188 271.828125 35.222656 272.285156 31.167969 C 268.671875 37 263.75 40.945312 256.757812 41.429688 C 249.859375 41.902344 244.125 39.53125 239.976562 33.605469 C 240.351562 34.484375 240.636719 35.414062 241.105469 36.230469 Z M 241.105469 36.230469 " fill-opacity="1" fill-rule="nonzero"/><g clip-path="url(#2ae22c028e)"><path fill="#289b7e" d="M 98.214844 173.941406 L 98.203125 173.9375 C 98.019531 173.769531 97.890625 173.527344 97.847656 173.1875 C 97.886719 173.476562 98.019531 173.734375 98.214844 173.941406 Z M 99.3125 174.355469 C 98.96875 174.410156 98.695312 174.347656 98.492188 174.160156 C 98.742188 174.3125 99.027344 174.378906 99.3125 174.355469 Z M 65.210938 149.230469 C 65.238281 149.179688 65.269531 149.148438 65.296875 149.109375 L 65.316406 149.101562 C 65.285156 149.148438 65.238281 149.179688 65.210938 149.230469 Z M 46.316406 129.550781 L 46.382812 129.53125 Z M 103.070312 126.285156 C 102.785156 126.296875 102.542969 126.414062 102.332031 126.570312 C 102.285156 126.5625 102.242188 126.542969 102.195312 126.542969 C 101.945312 126.539062 101.652344 126.542969 101.316406 126.558594 L 101.296875 126.558594 C 99.976562 126.632812 99.074219 126.675781 98.585938 126.6875 L 98.578125 126.6875 C 98.179688 126.703125 97.738281 126.707031 97.253906 126.703125 L 97.195312 126.703125 L 97.226562 126.703125 L 97.222656 126.703125 C 97.097656 126.703125 96.039062 126.6875 94.054688 126.660156 C 91.992188 126.605469 90.09375 126.566406 88.351562 126.542969 C 83.738281 126.425781 81.296875 126.371094 81.03125 126.371094 L 81.023438 126.371094 C 79.328125 126.347656 77.328125 126.34375 75.027344 126.355469 L 75.023438 126.355469 C 72.585938 126.371094 70.808594 126.394531 69.6875 126.421875 L 69.667969 126.421875 L 63.148438 126.636719 C 62.757812 126.644531 62.277344 126.65625 61.707031 126.664062 L 61.714844 126.664062 C 59.554688 126.6875 58.273438 126.707031 57.875 126.71875 L 57.90625 126.71875 L 57.867188 126.71875 C 54.550781 126.824219 51.792969 126.898438 49.59375 126.9375 L 49.585938 126.9375 C 48.074219 126.960938 47.050781 126.917969 46.515625 126.816406 C 46.199219 126.753906 45.890625 126.8125 45.628906 126.949219 C 45.183594 127.097656 44.828125 127.417969 44.558594 127.910156 C 44.238281 128.511719 44.039062 129.5 43.972656 130.871094 L 43.972656 130.90625 L 43.523438 148.367188 L 43.527344 148.316406 C 43.492188 148.890625 43.519531 149.367188 43.621094 149.746094 C 43.738281 150.199219 43.964844 150.542969 44.28125 150.800781 C 44.492188 151.003906 44.734375 151.175781 45.039062 151.292969 C 45.417969 151.4375 45.871094 151.511719 46.40625 151.519531 L 46.300781 151.511719 C 48.867188 151.75 53.105469 151.960938 59.027344 152.15625 L 59.117188 152.15625 C 60.996094 152.09375 62.527344 152 63.746094 151.875 C 62.855469 153.113281 61.585938 154.804688 59.933594 156.957031 L 43.40625 176.949219 C 42.734375 177.042969 42.253906 177.445312 41.976562 178.179688 C 41.859375 178.496094 41.785156 178.886719 41.75 179.359375 C 41.625 180.800781 41.632812 182.625 41.769531 184.835938 L 41.769531 184.820312 C 42.046875 190.78125 42.492188 194.324219 43.101562 195.441406 C 43.273438 195.757812 43.488281 196 43.746094 196.164062 C 43.9375 196.289062 44.152344 196.363281 44.378906 196.378906 C 46.207031 196.527344 51.015625 196.597656 58.808594 196.585938 L 58.847656 196.585938 L 81.4375 195.886719 L 99.605469 195.847656 C 99.871094 195.847656 100.101562 195.753906 100.308594 195.625 C 100.453125 195.664062 100.605469 195.691406 100.761719 195.679688 C 101.511719 195.617188 102.070312 194.964844 102.007812 194.214844 C 101.363281 186.460938 101.09375 180.25 101.191406 175.582031 L 101.1875 175.464844 C 101.113281 174.300781 100.992188 173.464844 100.824219 172.953125 C 100.804688 172.886719 100.777344 172.824219 100.753906 172.761719 C 100.472656 172.066406 100.0625 171.691406 99.527344 171.628906 C 99.453125 171.601562 99.386719 171.566406 99.300781 171.542969 C 98.679688 171.378906 97.304688 171.335938 95.191406 171.40625 L 95.132812 171.410156 L 85.5625 172.148438 C 80.40625 172.253906 75.769531 172.523438 71.640625 172.953125 C 70.957031 172.988281 70.371094 173.011719 69.863281 173.03125 C 82.746094 161 93.578125 149.441406 102.3125 138.367188 C 103.714844 136.65625 104.515625 135.398438 104.714844 134.601562 C 104.738281 134.511719 104.753906 134.425781 104.765625 134.339844 C 104.777344 134.261719 104.777344 134.179688 104.777344 134.097656 L 104.492188 127.578125 C 104.457031 126.832031 103.820312 126.25 103.070312 126.285156 " fill-opacity="1" fill-rule="nonzero"/></g><path fill="#289b7e" d="M 102.324219 138.355469 L 102.3125 138.367188 L 102.308594 138.375 Z M 102.324219 138.355469 " fill-opacity="1" fill-rule="nonzero"/><path fill="#289b7e" d="M 44.332031 150.859375 L 44.28125 150.800781 C 44.222656 150.75 44.15625 150.707031 44.105469 150.644531 L 44.332031 150.859375 " fill-opacity="1" fill-rule="nonzero"/><path fill="#289b7e" d="M 126.597656 129.382812 C 126.605469 129.285156 126.605469 129.183594 126.589844 129.089844 C 126.597656 129.152344 126.617188 129.210938 126.617188 129.277344 Z M 125.683594 127.992188 C 126.199219 128.164062 126.488281 128.5 126.574219 128.980469 C 126.472656 128.535156 126.152344 128.152344 125.683594 127.992188 Z M 126.53125 129.742188 C 126.515625 129.792969 126.484375 129.828125 126.464844 129.871094 C 126.503906 129.792969 126.53125 129.703125 126.554688 129.613281 Z M 125.964844 130.445312 L 125.902344 130.445312 C 126.109375 130.332031 126.289062 130.175781 126.414062 129.972656 C 126.300781 130.179688 126.152344 130.339844 125.964844 130.445312 Z M 120.496094 130.210938 C 120.785156 130.007812 120.957031 129.710938 121.027344 129.390625 C 121.003906 129.695312 120.835938 129.972656 120.496094 130.210938 Z M 138.847656 142.8125 C 139.050781 143.230469 139.035156 143.613281 138.769531 143.957031 C 138.816406 143.875 138.855469 143.785156 138.882812 143.699219 C 138.976562 143.402344 138.957031 143.09375 138.847656 142.8125 Z M 164.824219 170.957031 C 164.746094 169.320312 164.5 167.882812 164.085938 166.640625 C 163.910156 166.101562 163.410156 165.734375 162.835938 165.714844 C 154.910156 165.445312 147.9375 165.636719 141.894531 166.269531 C 141.925781 165.339844 142.074219 163.917969 142.335938 162 L 149.007812 161.628906 C 149.382812 161.605469 149.730469 161.433594 149.96875 161.152344 C 150.214844 160.867188 150.324219 160.496094 150.285156 160.128906 L 149.382812 151.792969 L 149.390625 151.921875 C 149.378906 150.875 148.839844 150.222656 147.777344 149.957031 C 147.511719 149.894531 147.214844 149.863281 146.886719 149.867188 L 146.910156 149.867188 L 146.882812 149.867188 L 146.886719 149.867188 L 146.878906 149.867188 C 145.101562 149.832031 142.054688 149.851562 137.765625 149.925781 L 138.246094 144.476562 L 138.351562 144.414062 C 139.796875 144.214844 145.203125 144.265625 154.566406 144.570312 C 154.632812 144.570312 154.695312 144.566406 154.757812 144.5625 L 158.351562 144.171875 C 159.09375 144.089844 159.632812 143.429688 159.558594 142.6875 L 158.125 128.5 C 158.050781 127.753906 157.382812 127.210938 156.632812 127.285156 C 156.371094 127.3125 156.148438 127.429688 155.957031 127.574219 C 155.316406 127.609375 154.71875 127.632812 154.164062 127.640625 C 152.691406 127.65625 151.675781 127.660156 151.121094 127.660156 C 150.675781 127.660156 150.277344 127.660156 149.929688 127.652344 C 147.066406 127.59375 145.421875 127.5625 144.996094 127.566406 C 144.054688 127.5625 142.980469 127.5625 141.769531 127.5625 L 141.765625 127.5625 L 139.953125 127.574219 C 138.5625 127.566406 137.707031 127.5625 137.390625 127.5625 C 137.070312 127.5625 136.75 127.566406 136.429688 127.566406 C 135.496094 127.582031 134.679688 127.601562 133.984375 127.628906 C 133.757812 127.632812 132.667969 127.6875 130.703125 127.792969 C 130.414062 127.808594 130.039062 127.824219 129.578125 127.835938 C 129 127.855469 128.574219 127.867188 128.296875 127.875 C 126.410156 127.898438 125.382812 127.917969 125.214844 127.921875 L 125.207031 127.921875 C 122.851562 127.980469 121.304688 128.027344 120.539062 128.066406 C 120.074219 127.699219 119.417969 127.644531 118.910156 128.007812 C 118.484375 128.308594 118.242188 128.632812 118.175781 128.980469 C 117.722656 129.207031 117.40625 129.664062 117.410156 130.203125 L 117.671875 161.230469 C 117.597656 162.808594 118.339844 172.390625 119.910156 190.023438 C 119.921875 190.15625 119.953125 190.289062 120.003906 190.414062 C 120.242188 191 120.707031 191.386719 121.394531 191.570312 L 121.398438 191.570312 C 121.597656 191.625 121.816406 191.65625 122.054688 191.671875 L 122.152344 191.675781 L 144.402344 191.417969 L 144.480469 191.414062 L 162.898438 190.136719 L 162.933594 190.132812 C 163.089844 190.117188 163.238281 190.09375 163.382812 190.058594 C 164.339844 189.816406 164.914062 189.21875 165.101562 188.253906 C 165.113281 188.210938 165.121094 188.167969 165.125 188.121094 L 165.128906 188.09375 C 165.359375 186.308594 165.257812 180.597656 164.824219 170.960938 L 164.824219 170.957031 " fill-opacity="1" fill-rule="nonzero"/><path fill="#289b7e" d="M 198.3125 143.027344 L 198.308594 143.03125 C 197.539062 143.875 196.261719 144.511719 194.480469 144.941406 C 192.226562 145.296875 190.429688 145.285156 189.042969 144.941406 L 188.824219 140.886719 C 188.792969 139.566406 188.847656 138.625 188.980469 138.019531 C 190.390625 137.667969 191.574219 137.539062 192.515625 137.65625 L 192.558594 137.660156 C 194.03125 137.796875 195.304688 138.195312 196.382812 138.855469 C 196.769531 139.140625 197.113281 139.417969 197.410156 139.6875 C 198.851562 141.003906 199.152344 142.113281 198.3125 143.027344 Z M 195.878906 165.265625 L 195.875 165.265625 Z M 212.382812 153.191406 C 215.257812 152.789062 217.242188 150.347656 218.332031 145.851562 C 218.367188 145.703125 218.378906 145.550781 218.363281 145.398438 C 217.53125 137.320312 215.609375 131.832031 212.59375 128.929688 L 212.683594 129.023438 C 210.585938 126.574219 206.992188 125.109375 201.90625 124.625 L 202.058594 124.652344 C 200.023438 124.226562 192.074219 124.933594 178.222656 126.773438 C 176.382812 126.867188 175.265625 126.851562 174.878906 126.722656 L 174.964844 126.765625 C 174.3125 126.386719 173.476562 126.609375 173.101562 127.257812 C 173.035156 127.375 173.007812 127.5 172.980469 127.621094 C 172.929688 127.726562 172.871094 127.820312 172.835938 127.941406 C 172.515625 129.09375 172.441406 134.132812 172.609375 143.058594 L 172.609375 143.066406 C 172.984375 157.640625 173.933594 172.210938 175.460938 186.773438 C 175.488281 187.039062 175.59375 187.289062 175.761719 187.492188 C 176.105469 187.910156 176.585938 188.144531 177.199219 188.1875 C 177.359375 188.203125 177.53125 188.199219 177.714844 188.183594 C 177.789062 188.175781 177.863281 188.164062 177.933594 188.144531 C 182.335938 187.023438 188.433594 186.183594 196.226562 185.625 C 196.589844 185.597656 196.933594 185.425781 197.167969 185.148438 C 197.40625 184.867188 197.519531 184.507812 197.484375 184.140625 L 196.039062 169.296875 C 199.28125 173.9375 203.554688 179.300781 208.886719 185.410156 C 209.175781 185.742188 209.605469 185.914062 210.042969 185.875 L 223.144531 184.667969 C 223.191406 184.664062 223.234375 184.65625 223.277344 184.648438 C 223.417969 184.621094 223.546875 184.589844 223.671875 184.546875 L 223.675781 184.546875 C 224.46875 184.28125 224.933594 183.773438 225.070312 183.023438 C 225.117188 182.796875 225.097656 182.558594 225.015625 182.335938 C 222.652344 175.617188 218.4375 165.898438 212.382812 153.191406 " fill-opacity="1" fill-rule="nonzero"/><g clip-path="url(#b4a3f09e44)"><path fill="#289b7e" d="M 260.6875 163.175781 L 260.671875 163.210938 C 258.589844 163.289062 256.921875 163.25 255.710938 163.089844 L 255.6875 163.085938 C 254.207031 162.914062 253.351562 162.535156 253.117188 161.949219 C 253.074219 161.839844 253.011719 161.742188 252.941406 161.648438 C 252.710938 160.851562 252.453125 158.078125 252.167969 153.28125 C 252.164062 153.140625 252.117188 153.007812 252.070312 152.878906 C 252.097656 152.957031 252.132812 153.03125 252.144531 153.113281 C 252.078125 152.597656 252.019531 149.183594 251.964844 142.871094 L 251.964844 142.777344 C 252.011719 142.679688 252.046875 142.578125 252.074219 142.472656 C 252.996094 142.464844 254.289062 142.816406 255.96875 143.554688 C 257.070312 144.105469 257.949219 145.023438 258.605469 146.304688 C 259.304688 147.804688 259.8125 149.867188 260.125 152.496094 C 260.820312 158.742188 261.003906 162.304688 260.683594 163.175781 L 260.683594 163.179688 Z M 251.769531 161.089844 C 252.269531 161.0625 252.621094 161.210938 252.835938 161.523438 C 252.566406 161.238281 252.179688 161.066406 251.769531 161.089844 Z M 282.097656 149.082031 L 282.097656 149.039062 C 281.625 141.734375 279.824219 136.175781 276.695312 132.351562 C 273.878906 127.964844 268 125.234375 259.058594 124.167969 L 258.960938 124.160156 C 244.203125 123.464844 235.347656 124.863281 232.390625 128.355469 C 232.261719 128.503906 232.179688 128.679688 232.128906 128.859375 C 231.769531 129.070312 231.503906 129.421875 231.460938 129.867188 C 231.34375 131.058594 231.351562 132.414062 231.476562 133.9375 L 234.527344 169.722656 L 234.53125 169.773438 C 235.113281 174.523438 236.585938 178.332031 238.949219 181.207031 L 238.957031 181.210938 C 241.410156 184.15625 246.316406 186.023438 253.679688 186.808594 L 253.683594 186.808594 C 262.574219 187.742188 271.042969 187.300781 279.09375 185.488281 C 279.316406 185.4375 279.511719 185.332031 279.675781 185.191406 C 279.789062 185.175781 279.898438 185.171875 280.011719 185.125 C 281.457031 184.527344 282.199219 183.09375 282.242188 180.824219 L 282.238281 180.910156 C 282.667969 175.6875 282.621094 165.078125 282.097656 149.082031 " fill-opacity="1" fill-rule="nonzero"/></g></svg>