<svg xmlns="http://www.w3.org/2000/svg" xmlns:xlink="http://www.w3.org/1999/xlink" width="49" zoomAndPan="magnify" viewBox="0 0 36.75 56.999997" height="76" preserveAspectRatio="xMidYMid meet" version="1.0"><defs><filter x="0%" y="0%" width="100%" height="100%" id="2534c3c21e"><feColorMatrix values="0 0 0 0 1 0 0 0 0 1 0 0 0 0 1 0 0 0 1 0" color-interpolation-filters="sRGB"/></filter><clipPath id="f7981c504f"><path d="M 15 0.363281 L 36.25 0.363281 L 36.25 32.613281 L 15 32.613281 Z M 15 0.363281 " clip-rule="nonzero"/></clipPath><clipPath id="be39fc2617"><path d="M 0 11 L 36.5 11 L 36.5 56.804688 L 0 56.804688 Z M 0 11 " clip-rule="nonzero"/></clipPath><mask id="c8e5ea44ba"><g filter="url(#2534c3c21e)"><rect x="-3.675" width="44.1" fill="#000000" y="-5.7" height="68.399996" fill-opacity="0.7"/></g></mask><clipPath id="94825dd93d"><path d="M 0.0625 0.390625 L 36.0625 0.390625 L 36.0625 45.390625 L 0.0625 45.390625 Z M 0.0625 0.390625 " clip-rule="nonzero"/></clipPath><clipPath id="7f98e3eecf"><rect x="0" width="37" y="0" height="46"/></clipPath><clipPath id="855b48d0d8"><path d="M 9 0.191406 L 26 0.191406 L 26 56 L 9 56 Z M 9 0.191406 " clip-rule="nonzero"/></clipPath><mask id="ad9e64acb2"><g filter="url(#2534c3c21e)"><rect x="-3.675" width="44.1" fill="#000000" y="-5.7" height="68.399996" fill-opacity="0.48"/></g></mask><clipPath id="470fa04219"><path d="M 9 34 L 14 34 L 14 51 L 9 51 Z M 9 34 " clip-rule="nonzero"/></clipPath><clipPath id="5139fc17b4"><path d="M 12.96875 50.96875 L 9.21875 50.898438 L 9.53125 34.398438 L 13.28125 34.472656 Z M 12.96875 50.96875 " clip-rule="nonzero"/></clipPath><clipPath id="a8a4b35539"><path d="M 12.871094 56.148438 L 0.871094 55.921875 L 3.96875 -107.550781 L 15.96875 -107.320312 Z M 12.871094 56.148438 " clip-rule="nonzero"/></clipPath><clipPath id="d6395a77ad"><rect x="0" width="17" y="0" height="56"/></clipPath></defs><g clip-path="url(#f7981c504f)"><path fill="#f4e38c" d="M 46.285156 15.402344 C 45.117188 23.472656 38.867188 32.609375 30.699219 32.609375 C 22.527344 32.609375 18.023438 25.71875 15.902344 17.84375 C 13.753906 9.84375 20.582031 0.367188 34.882812 0.367188 C 43.050781 0.367188 47.503906 7.011719 46.285156 15.402344 " fill-opacity="1" fill-rule="nonzero"/></g><g clip-path="url(#be39fc2617)"><g mask="url(#c8e5ea44ba)"><g transform="matrix(1, 0, 0, 1, 0, 11)"><g clip-path="url(#7f98e3eecf)"><g clip-path="url(#94825dd93d)"><path fill="#2fa564" d="M 44.542969 10.5 L 36.210938 10.5 C 38.476562 8.660156 39.488281 6.457031 39.488281 4.707031 C 39.488281 2.554688 37.890625 0.390625 34.433594 0.390625 C 29.449219 0.390625 25.464844 5.132812 23.3125 8.476562 C 21.121094 5.121094 17.136719 0.390625 12.195312 0.390625 C 8.738281 0.390625 7.140625 2.554688 7.140625 4.707031 C 7.140625 6.457031 8.148438 8.660156 10.414062 10.5 L 2.085938 10.5 C 1.816406 10.5 1.558594 10.550781 1.3125 10.652344 C 1.0625 10.753906 0.84375 10.902344 0.65625 11.089844 C 0.464844 11.28125 0.320312 11.5 0.21875 11.746094 C 0.113281 11.996094 0.0625 12.253906 0.0625 12.519531 L 0.0625 20.609375 C 0.0625 20.875 0.113281 21.132812 0.21875 21.382812 C 0.320312 21.628906 0.464844 21.847656 0.65625 22.039062 C 0.84375 22.226562 1.0625 22.375 1.3125 22.476562 C 1.558594 22.578125 1.816406 22.628906 2.085938 22.628906 L 4.105469 22.628906 L 4.105469 44.867188 C 4.105469 45.136719 4.15625 45.394531 4.261719 45.640625 C 4.363281 45.890625 4.507812 46.109375 4.699219 46.296875 C 4.886719 46.488281 5.105469 46.632812 5.355469 46.738281 C 5.601562 46.839844 5.859375 46.890625 6.128906 46.890625 L 40.496094 46.890625 C 40.765625 46.890625 41.023438 46.839844 41.273438 46.738281 C 41.519531 46.632812 41.738281 46.488281 41.925781 46.296875 C 42.117188 46.109375 42.261719 45.890625 42.367188 45.640625 C 42.46875 45.394531 42.519531 45.136719 42.519531 44.867188 L 42.519531 22.628906 L 44.542969 22.628906 C 44.808594 22.628906 45.066406 22.578125 45.316406 22.476562 C 45.5625 22.375 45.78125 22.226562 45.972656 22.039062 C 46.160156 21.847656 46.308594 21.628906 46.410156 21.382812 C 46.511719 21.132812 46.5625 20.875 46.5625 20.609375 L 46.5625 12.519531 C 46.5625 12.253906 46.511719 11.996094 46.410156 11.746094 C 46.308594 11.5 46.160156 11.28125 45.972656 11.089844 C 45.78125 10.902344 45.5625 10.753906 45.316406 10.652344 C 45.066406 10.550781 44.808594 10.5 44.542969 10.5 Z M 34.433594 4.433594 C 34.65625 4.433594 35.445312 4.433594 35.445312 4.765625 C 35.445312 6.03125 32.96875 8.984375 27.132812 10.085938 C 29.003906 7.464844 31.765625 4.433594 34.433594 4.433594 Z M 12.195312 4.433594 C 14.894531 4.433594 17.652344 7.464844 19.53125 10.085938 C 13.660156 8.984375 11.183594 6.03125 11.183594 4.765625 C 11.183594 4.433594 11.929688 4.433594 12.195312 4.433594 Z M 4.105469 14.542969 L 21.292969 14.542969 L 21.292969 18.585938 L 4.105469 18.585938 Z M 8.148438 22.628906 L 21.292969 22.628906 L 21.292969 42.847656 L 8.148438 42.847656 Z M 38.476562 42.847656 L 25.335938 42.847656 L 25.335938 22.628906 L 38.476562 22.628906 Z M 42.519531 18.585938 L 25.335938 18.585938 L 25.335938 14.542969 L 42.519531 14.542969 Z M 42.519531 18.585938 " fill-opacity="1" fill-rule="nonzero"/></g></g></g></g></g><g clip-path="url(#855b48d0d8)"><g mask="url(#ad9e64acb2)"><g transform="matrix(1, 0, 0, 1, 9, 0.000000000000000666)"><g clip-path="url(#d6395a77ad)"><g clip-path="url(#470fa04219)"><g clip-path="url(#5139fc17b4)"><g clip-path="url(#a8a4b35539)"><path fill="#000000" d="M 12.882812 55.59375 L 0.882812 55.367188 L 3.960938 -106.996094 L 15.957031 -106.769531 Z M 12.882812 55.59375 " fill-opacity="1" fill-rule="nonzero"/></g></g></g></g></g></g></g></svg>