<svg xmlns="http://www.w3.org/2000/svg" xmlns:xlink="http://www.w3.org/1999/xlink" width="65" zoomAndPan="magnify" viewBox="0 0 48.75 52.499999" height="70" preserveAspectRatio="xMidYMid meet" version="1.0"><defs><filter x="0%" y="0%" width="100%" height="100%" id="7cecad54c5"><feColorMatrix values="0 0 0 0 1 0 0 0 0 1 0 0 0 0 1 0 0 0 1 0" color-interpolation-filters="sRGB"/></filter><clipPath id="f9837714e7"><path d="M 27 0.148438 L 48.199219 0.148438 L 48.199219 32.257812 L 27 32.257812 Z M 27 0.148438 " clip-rule="nonzero"/></clipPath><clipPath id="2f7736265b"><path d="M 0.105469 7 L 48.394531 7 L 48.394531 52.003906 L 0.105469 52.003906 Z M 0.105469 7 " clip-rule="nonzero"/></clipPath><mask id="ed131d175c"><g filter="url(#7cecad54c5)"><rect x="-4.875" width="58.5" fill="#000000" y="-5.25" height="62.999998" fill-opacity="0.71"/></g></mask><clipPath id="5c96d7af24"><path d="M 0.601562 0.132812 L 48.390625 0.132812 L 48.390625 44.898438 L 0.601562 44.898438 Z M 0.601562 0.132812 " clip-rule="nonzero"/></clipPath><clipPath id="3fd3dfe038"><rect x="0" width="49" y="0" height="46"/></clipPath><clipPath id="9b048c5ab4"><path d="M 16 28 L 22 28 L 22 52.003906 L 16 52.003906 Z M 16 28 " clip-rule="nonzero"/></clipPath><mask id="429b8e372a"><g filter="url(#7cecad54c5)"><rect x="-4.875" width="58.5" fill="#000000" y="-5.25" height="62.999998" fill-opacity="0.53"/></g></mask><clipPath id="930f638e92"><path d="M 0.675781 0.289062 L 2.914062 0.289062 L 2.914062 11.324219 L 0.675781 11.324219 Z M 0.675781 0.289062 " clip-rule="nonzero"/></clipPath><clipPath id="638764009b"><rect x="0" width="6" y="0" height="25"/></clipPath></defs><g clip-path="url(#f9837714e7)"><path fill="#f4e38c" d="M 58.191406 15.121094 C 57.027344 23.15625 50.804688 32.253906 42.671875 32.253906 C 34.535156 32.253906 30.050781 25.394531 27.941406 17.550781 C 25.796875 9.585938 32.597656 0.152344 46.835938 0.152344 C 54.972656 0.152344 59.402344 6.765625 58.191406 15.121094 " fill-opacity="1" fill-rule="nonzero"/></g><g clip-path="url(#2f7736265b)"><g mask="url(#ed131d175c)"><g transform="matrix(1, 0, 0, 1, 0.000000000000000111, 7)"><g clip-path="url(#3fd3dfe038)"><g clip-path="url(#5c96d7af24)"><path fill="#2fa564" d="M 12.40625 41.492188 L 13.269531 41.769531 C 13.660156 41.894531 22.960938 44.835938 31.652344 44.835938 C 40.339844 44.835938 49.515625 41.722656 49.902344 41.589844 L 50.734375 41.304688 L 50.699219 17.714844 L 54.53125 16.144531 L 54.53125 24.125 C 54.082031 24.335938 53.710938 24.644531 53.421875 25.050781 C 53.132812 25.457031 52.960938 25.90625 52.910156 26.398438 L 52.058594 34.308594 L 59.460938 34.308594 L 58.617188 26.425781 C 58.566406 25.929688 58.394531 25.480469 58.109375 25.074219 C 57.820312 24.671875 57.449219 24.363281 57 24.148438 L 57 15.148438 L 62.578125 12.859375 L 31.589844 0.152344 L 0.601562 12.859375 L 12.535156 17.75 Z M 54.804688 31.878906 L 55.363281 26.683594 C 55.371094 26.582031 55.414062 26.496094 55.492188 26.425781 C 55.566406 26.351562 55.660156 26.316406 55.765625 26.316406 C 55.867188 26.316406 55.960938 26.351562 56.035156 26.425781 C 56.113281 26.496094 56.15625 26.582031 56.167969 26.683594 L 56.722656 31.878906 Z M 31.652344 42.394531 C 24.832031 42.394531 17.371094 40.410156 14.882812 39.691406 L 14.902344 36.109375 C 18.003906 36.980469 25.003906 38.703125 31.652344 38.703125 C 38.300781 38.703125 45.179688 36.898438 48.257812 35.980469 L 48.257812 39.550781 C 45.832031 40.300781 38.472656 42.394531 31.652344 42.394531 Z M 48.253906 33.410156 C 45.816406 34.164062 38.46875 36.25 31.652344 36.25 C 24.835938 36.25 17.433594 34.285156 14.917969 33.558594 L 14.996094 18.761719 L 31.589844 25.566406 L 48.242188 18.742188 Z M 31.601562 2.804688 L 56.105469 12.859375 L 31.589844 22.910156 L 7.078125 12.859375 Z M 31.601562 2.804688 " fill-opacity="1" fill-rule="nonzero"/></g></g></g></g></g><g clip-path="url(#9b048c5ab4)"><g mask="url(#429b8e372a)"><g transform="matrix(1, 0, 0, 1, 16, 28)"><g clip-path="url(#638764009b)"><g clip-path="url(#930f638e92)"><path fill="#000000" d="M 0.675781 0.308594 L 5.15625 0.308594 L 5.15625 57.4375 L 0.675781 57.4375 Z M 0.675781 0.308594 " fill-opacity="1" fill-rule="nonzero"/></g></g></g></g></g></svg>