<svg width="14" height="14" viewBox="0 0 14 14" fill="none" xmlns="http://www.w3.org/2000/svg">
<path d="M9.10231 7.25005H9.61155C9.84168 7.25005 10.0282 7.43658 10.0282 7.66672V10.3056C10.0282 10.5357 9.84168 10.7223 9.61155 10.7223H4.88932C4.65921 10.7223 4.47266 10.5357 4.47266 10.3056V7.66672C4.47266 7.43658 4.65921 7.25005 4.88932 7.25005H5.39858M9.10231 7.25005V5.51394C9.10231 4.93524 8.73189 3.77783 7.25043 3.77783C5.76895 3.77783 5.39858 4.93524 5.39858 5.51394V7.25005M9.10231 7.25005H5.39858" stroke="black" stroke-linecap="round" stroke-linejoin="round"/>
<path d="M1 12.1111V2.38889C1 1.62183 1.62183 1 2.38889 1H12.1111C12.8782 1 13.5 1.62183 13.5 2.38889V12.1111C13.5 12.8782 12.8782 13.5 12.1111 13.5H2.38889C1.62183 13.5 1 12.8782 1 12.1111Z" stroke="black"/>
</svg>
