<svg width="25" height="28" viewBox="0 0 25 28" fill="none" xmlns="http://www.w3.org/2000/svg">
<path d="M20.0952 9.7455C20.0952 7.69113 19.3327 5.72092 17.9752 4.26826C16.6178 2.8156 14.7768 1.99951 12.8571 1.99951C10.9375 1.99951 9.09645 2.8156 7.73904 4.26826C6.38163 5.72092 5.61905 7.69113 5.61905 9.7455C5.61905 18.7825 2 21.3645 2 21.3645H23.7143C23.7143 21.3645 20.0952 18.7825 20.0952 9.7455Z" stroke="white" stroke-width="2.365" stroke-linecap="round" stroke-linejoin="round"/>
<path d="M14.9442 24.9954C14.7321 25.3623 14.4277 25.6668 14.0614 25.8783C13.6951 26.09 13.2799 26.2015 12.8572 26.2015C12.4345 26.2015 12.0193 26.09 11.653 25.8783C11.2868 25.6668 10.9823 25.3623 10.7702 24.9954" stroke="white" stroke-width="2.365" stroke-linecap="round" stroke-linejoin="round"/>
</svg>
