<svg xmlns="http://www.w3.org/2000/svg" xmlns:xlink="http://www.w3.org/1999/xlink" width="60" zoomAndPan="magnify" viewBox="0 0 45 57.749997" height="77" preserveAspectRatio="xMidYMid meet" version="1.0"><defs><filter x="0%" y="0%" width="100%" height="100%" id="2531abc628"><feColorMatrix values="0 0 0 0 1 0 0 0 0 1 0 0 0 0 1 0 0 0 1 0" color-interpolation-filters="sRGB"/></filter><clipPath id="f5c8397d9e"><path d="M 24 0.09375 L 44.785156 0.09375 L 44.785156 32.203125 L 24 32.203125 Z M 24 0.09375 " clip-rule="nonzero"/></clipPath><clipPath id="62c86b892f"><path d="M 0.0976562 12 L 44.902344 12 L 44.902344 57.5 L 0.0976562 57.5 Z M 0.0976562 12 " clip-rule="nonzero"/></clipPath><mask id="61df6427e2"><g filter="url(#2531abc628)"><rect x="-4.5" width="54" fill="#000000" y="-5.775" height="69.299996" fill-opacity="0.73"/></g></mask><clipPath id="518632f089"><path d="M 0.382812 0.375 L 44.445312 0.375 L 44.445312 45.179688 L 0.382812 45.179688 Z M 0.382812 0.375 " clip-rule="nonzero"/></clipPath><clipPath id="ac74fbf5a4"><rect x="0" width="45" y="0" height="46"/></clipPath><mask id="229d517f0f"><g filter="url(#2531abc628)"><rect x="-4.5" width="54" fill="#000000" y="-5.775" height="69.299996" fill-opacity="0.5"/></g></mask><clipPath id="a12b628823"><path d="M 6 1 L 19 1 L 19 20 L 6 20 Z M 6 1 " clip-rule="nonzero"/></clipPath><clipPath id="24fa540ac9"><path d="M 15.78125 21.917969 L 1.203125 16.132812 L 7.8125 -0.527344 L 22.390625 5.257812 Z M 15.78125 21.917969 " clip-rule="nonzero"/></clipPath><clipPath id="6117d6909b"><path d="M 15.78125 21.917969 L 1.203125 16.132812 L 7.8125 -0.527344 L 22.390625 5.257812 Z M 15.78125 21.917969 " clip-rule="nonzero"/></clipPath><clipPath id="224d0964a8"><rect x="0" width="22" y="0" height="22"/></clipPath></defs><g clip-path="url(#f5c8397d9e)"><path fill="#f4e38c" d="M 54.777344 15.066406 C 53.613281 23.105469 47.390625 32.199219 39.257812 32.199219 C 31.121094 32.199219 26.636719 25.339844 24.527344 17.496094 C 22.382812 9.53125 29.183594 0.0976562 43.421875 0.0976562 C 51.558594 0.0976562 55.988281 6.714844 54.777344 15.066406 " fill-opacity="1" fill-rule="nonzero"/></g><g clip-path="url(#62c86b892f)"><g mask="url(#61df6427e2)"><g transform="matrix(1, 0, 0, 1, 0, 12)"><g clip-path="url(#ac74fbf5a4)"><g clip-path="url(#518632f089)"><path fill="#2fa564" d="M 47.753906 6.21875 L 39.648438 6.21875 L 37.25 3.277344 C 35.742188 1.433594 33.503906 0.375 31.101562 0.375 L 24.929688 0.375 C 22.53125 0.375 20.285156 1.433594 18.785156 3.277344 L 16.386719 6.21875 L 8.273438 6.21875 C 3.929688 6.21875 0.386719 9.714844 0.386719 14.003906 L 0.386719 37.394531 C 0.386719 41.691406 3.929688 45.179688 8.273438 45.179688 L 47.753906 45.179688 C 52.105469 45.179688 55.640625 41.6875 55.640625 37.394531 L 55.640625 14.003906 C 55.640625 9.714844 52.101562 6.21875 47.753906 6.21875 Z M 51.695312 37.394531 C 51.695312 39.542969 49.929688 41.285156 47.753906 41.285156 L 8.273438 41.285156 C 6.101562 41.285156 4.332031 39.542969 4.332031 37.394531 L 4.332031 14.003906 C 4.332031 11.859375 6.101562 10.113281 8.273438 10.113281 L 17.324219 10.113281 C 17.921875 10.113281 18.484375 9.84375 18.859375 9.386719 L 21.855469 5.722656 C 22.609375 4.800781 23.726562 4.273438 24.929688 4.273438 L 31.105469 4.273438 C 32.304688 4.273438 33.425781 4.800781 34.175781 5.722656 L 37.167969 9.390625 C 37.542969 9.847656 38.109375 10.117188 38.703125 10.117188 L 47.753906 10.117188 C 49.929688 10.117188 51.695312 11.863281 51.695312 14.007812 Z M 28.015625 12.066406 C 20.398438 12.066406 14.203125 18.183594 14.203125 25.703125 C 14.203125 33.222656 20.398438 39.335938 28.015625 39.335938 C 35.632812 39.335938 41.828125 33.222656 41.828125 25.703125 C 41.828125 18.183594 35.632812 12.066406 28.015625 12.066406 Z M 28.015625 35.441406 C 22.574219 35.441406 18.148438 31.070312 18.148438 25.699219 C 18.148438 20.328125 22.574219 15.960938 28.015625 15.960938 C 33.457031 15.960938 37.882812 20.332031 37.882812 25.703125 C 37.882812 31.074219 33.457031 35.441406 28.015625 35.441406 Z M 28.015625 35.441406 " fill-opacity="1" fill-rule="nonzero"/></g></g></g></g></g><g mask="url(#229d517f0f)"><g transform="matrix(1, 0, 0, 1, 18, 27)"><g clip-path="url(#224d0964a8)"><g clip-path="url(#a12b628823)"><g clip-path="url(#24fa540ac9)"><g clip-path="url(#6117d6909b)"><path fill="#000000" d="M 6.59375 2.546875 C 6.921875 2.410156 7.253906 2.292969 7.597656 2.199219 C 7.941406 2.101562 8.289062 2.027344 8.640625 1.972656 C 8.992188 1.917969 9.347656 1.886719 9.703125 1.875 C 10.0625 1.863281 10.417969 1.875 10.777344 1.90625 C 11.132812 1.9375 11.488281 1.992188 11.835938 2.066406 C 12.1875 2.140625 12.53125 2.238281 12.871094 2.351562 C 13.210938 2.46875 13.542969 2.605469 13.867188 2.761719 C 14.191406 2.917969 14.503906 3.089844 14.804688 3.285156 C 15.105469 3.476562 15.394531 3.6875 15.671875 3.917969 C 15.949219 4.144531 16.207031 4.386719 16.457031 4.644531 C 16.703125 4.90625 16.929688 5.179688 17.144531 5.464844 C 17.355469 5.75 17.550781 6.046875 17.726562 6.355469 C 17.902344 6.664062 18.058594 6.984375 18.195312 7.3125 C 18.332031 7.636719 18.445312 7.972656 18.542969 8.3125 C 18.636719 8.652344 18.710938 8.996094 18.761719 9.347656 C 18.8125 9.695312 18.84375 10.046875 18.851562 10.398438 C 18.859375 10.75 18.847656 11.097656 18.8125 11.449219 C 18.777344 11.796875 18.71875 12.144531 18.640625 12.484375 C 18.558594 12.828125 18.460938 13.164062 18.339844 13.492188 C 18.21875 13.820312 18.078125 14.140625 17.914062 14.453125 C 17.753906 14.761719 17.574219 15.0625 17.375 15.351562 C 17.175781 15.640625 16.960938 15.917969 16.726562 16.179688 C 16.492188 16.441406 16.242188 16.6875 15.976562 16.921875 C 15.710938 17.152344 15.429688 17.367188 15.136719 17.5625 C 14.84375 17.761719 14.542969 17.941406 14.226562 18.101562 C 13.910156 18.261719 13.585938 18.402344 13.25 18.523438 C 12.917969 18.644531 12.578125 18.742188 12.230469 18.824219 C 11.882812 18.902344 11.53125 18.960938 11.175781 18.996094 C 10.820312 19.035156 10.464844 19.050781 10.105469 19.042969 C 9.75 19.035156 9.390625 19.007812 9.039062 18.960938 C 8.683594 18.910156 8.332031 18.839844 7.984375 18.75 C 7.636719 18.65625 7.296875 18.546875 6.964844 18.414062 L 8.15625 15.40625 C 8.363281 15.488281 8.574219 15.558594 8.792969 15.617188 C 9.007812 15.671875 9.226562 15.714844 9.445312 15.746094 C 9.667969 15.777344 9.890625 15.796875 10.113281 15.800781 C 10.335938 15.804688 10.554688 15.792969 10.777344 15.769531 C 10.996094 15.746094 11.214844 15.710938 11.433594 15.664062 C 11.648438 15.613281 11.859375 15.550781 12.066406 15.476562 C 12.277344 15.402344 12.476562 15.3125 12.675781 15.214844 C 12.871094 15.113281 13.058594 15.003906 13.242188 14.878906 C 13.425781 14.757812 13.597656 14.625 13.761719 14.480469 C 13.929688 14.335938 14.085938 14.183594 14.230469 14.019531 C 14.375 13.855469 14.511719 13.683594 14.632812 13.503906 C 14.757812 13.324219 14.871094 13.140625 14.972656 12.945312 C 15.070312 12.75 15.160156 12.550781 15.234375 12.347656 C 15.308594 12.144531 15.371094 11.933594 15.421875 11.722656 C 15.472656 11.507812 15.507812 11.292969 15.527344 11.078125 C 15.550781 10.859375 15.558594 10.640625 15.554688 10.421875 C 15.550781 10.203125 15.53125 9.984375 15.5 9.769531 C 15.464844 9.550781 15.421875 9.335938 15.363281 9.125 C 15.304688 8.914062 15.230469 8.707031 15.144531 8.503906 C 15.0625 8.296875 14.964844 8.101562 14.855469 7.910156 C 14.746094 7.714844 14.625 7.53125 14.492188 7.351562 C 14.359375 7.175781 14.21875 7.003906 14.0625 6.84375 C 13.910156 6.683594 13.75 6.53125 13.578125 6.390625 C 13.40625 6.25 13.226562 6.117188 13.039062 5.996094 C 12.847656 5.875 12.65625 5.769531 12.453125 5.671875 C 12.253906 5.574219 12.046875 5.488281 11.835938 5.417969 C 11.625 5.34375 11.410156 5.285156 11.191406 5.238281 C 10.972656 5.191406 10.753906 5.160156 10.53125 5.140625 C 10.308594 5.121094 10.085938 5.113281 9.863281 5.121094 C 9.644531 5.125 9.421875 5.148438 9.203125 5.179688 C 8.984375 5.214844 8.765625 5.261719 8.554688 5.320312 C 8.339844 5.378906 8.132812 5.453125 7.929688 5.539062 Z M 6.59375 2.546875 " fill-opacity="1" fill-rule="nonzero"/></g></g></g></g></g></g></svg>