<svg width="9" height="9" viewBox="0 0 9 9" fill="none" xmlns="http://www.w3.org/2000/svg">
<g clip-path="url(#clip0_637_1139)">
<path d="M7.63246 2.06848V6.10267H0.572633V2.06848H7.63246ZM8.13674 1.56421H0.0683594V6.60694H8.13674V1.56421Z" fill="black"/>
<path d="M4.10279 2.57275C4.96005 2.57275 5.61561 3.22831 5.61561 4.08557C5.61561 4.94284 4.96005 5.59839 4.10279 5.59839H6.62416V5.09412H7.12843V3.07703H6.62416V2.57275H4.10279ZM2.58997 4.08557C2.58997 3.22831 3.24552 2.57275 4.10279 2.57275H1.58142V3.07703H1.07715V5.09412H1.58142V5.59839H4.10279C3.24552 5.59839 2.58997 4.94284 2.58997 4.08557Z" fill="black"/>
</g>
<defs>
<clipPath id="clip0_637_1139">
<rect width="8.06838" height="8.06838" fill="white" transform="translate(0.0683594 0.0512695)"/>
</clipPath>
</defs>
</svg>
